<?xml version="1.0" encoding="UTF-8"?>
<svg xmlns="http://www.w3.org/2000/svg" xmlns:xlink="http://www.w3.org/1999/xlink" width="20pt" height="20pt" viewBox="0 0 20 20" version="1.1">
<g id="surface3947554">
<path style=" stroke:none;fill-rule:nonzero;fill:rgb(100%,100%,100%);fill-opacity:1;" d="M 10 1.199219 C 5.140625 1.199219 1.199219 5.140625 1.199219 10 C 1.199219 14.410156 4.449219 18.054688 8.683594 18.691406 L 8.683594 12.332031 L 6.507812 12.332031 L 6.507812 10.019531 L 8.683594 10.019531 L 8.683594 8.480469 C 8.683594 5.929688 9.925781 4.8125 12.042969 4.8125 C 13.058594 4.8125 13.59375 4.886719 13.847656 4.921875 L 13.847656 6.941406 L 12.40625 6.941406 C 11.503906 6.941406 11.191406 7.792969 11.191406 8.753906 L 11.191406 10.019531 L 13.828125 10.019531 L 13.46875 12.332031 L 11.191406 12.332031 L 11.191406 18.710938 C 15.488281 18.128906 18.800781 14.453125 18.800781 10 C 18.800781 5.140625 14.859375 1.199219 10 1.199219 Z M 10 1.199219 "/>
</g>
</svg>
