<?xml version="1.0" encoding="UTF-8"?>
<svg xmlns="http://www.w3.org/2000/svg" xmlns:xlink="http://www.w3.org/1999/xlink" width="20pt" height="20pt" viewBox="0 0 20 20" version="1.1">
<g id="surface4057411">
<path style=" stroke:none;fill-rule:nonzero;fill:rgb(100%,100%,100%);fill-opacity:1;" d="M 10 0.800781 C 4.925781 0.800781 0.800781 4.925781 0.800781 10 C 0.800781 15.074219 4.925781 19.199219 10 19.199219 C 15.074219 19.199219 19.199219 15.074219 19.199219 10 C 19.199219 4.925781 15.074219 0.800781 10 0.800781 Z M 12.800781 6.398438 L 11.484375 6.398438 C 10.707031 6.398438 10.398438 6.582031 10.398438 7.121094 L 10.398438 8.398438 L 12.800781 8.398438 L 12.398438 10.398438 L 10.398438 10.398438 L 10.398438 15.601562 L 8 15.601562 L 8 10.398438 L 6.800781 10.398438 L 6.800781 8.398438 L 8 8.398438 L 8 7.289062 C 8 5.601562 8.675781 4.398438 10.632812 4.398438 C 11.679688 4.398438 12.800781 4.800781 12.800781 4.800781 Z M 12.800781 6.398438 "/>
</g>
</svg>
