<?xml version="1.0" encoding="UTF-8"?>
<svg xmlns="http://www.w3.org/2000/svg" xmlns:xlink="http://www.w3.org/1999/xlink" width="20pt" height="20pt" viewBox="0 0 20 20" version="1.1">
<g id="surface3947711">
<path style=" stroke:none;fill-rule:nonzero;fill:rgb(100%,100%,100%);fill-opacity:1;" d="M 6.875 2.082031 C 4.234375 2.082031 2.082031 4.234375 2.082031 6.875 L 2.082031 13.125 C 2.082031 15.761719 4.234375 17.917969 6.875 17.917969 L 13.125 17.917969 C 15.765625 17.917969 17.917969 15.765625 17.917969 13.125 L 17.917969 6.875 C 17.917969 4.234375 15.761719 2.082031 13.125 2.082031 Z M 6.875 3.332031 L 13.125 3.332031 C 15.089844 3.332031 16.667969 4.910156 16.667969 6.875 L 16.667969 13.125 C 16.667969 15.089844 15.089844 16.667969 13.125 16.667969 L 6.875 16.667969 C 4.910156 16.667969 3.332031 15.089844 3.332031 13.125 L 3.332031 6.875 C 3.332031 4.910156 4.910156 3.332031 6.875 3.332031 Z M 14.167969 5 C 13.707031 5 13.332031 5.371094 13.332031 5.832031 C 13.332031 6.292969 13.707031 6.667969 14.167969 6.667969 C 14.628906 6.667969 15 6.292969 15 5.832031 C 15 5.371094 14.628906 5 14.167969 5 Z M 10 5.832031 C 7.707031 5.832031 5.832031 7.707031 5.832031 10 C 5.832031 12.292969 7.707031 14.167969 10 14.167969 C 12.292969 14.167969 14.167969 12.292969 14.167969 10 C 14.167969 7.707031 12.292969 5.832031 10 5.832031 Z M 10 7.082031 C 11.617188 7.082031 12.917969 8.382812 12.917969 10 C 12.917969 11.617188 11.617188 12.917969 10 12.917969 C 8.382812 12.917969 7.082031 11.617188 7.082031 10 C 7.082031 8.382812 8.382812 7.082031 10 7.082031 Z M 10 7.082031 "/>
</g>
</svg>
