<?xml version="1.0" encoding="UTF-8"?>
<svg xmlns="http://www.w3.org/2000/svg" xmlns:xlink="http://www.w3.org/1999/xlink" width="20pt" height="20pt" viewBox="0 0 20 20" version="1.1">
<g id="surface3947953">
<path style=" stroke:none;fill-rule:nonzero;fill:rgb(100%,100%,100%);fill-opacity:1;" d="M 15.898438 4.105469 C 14.164062 2.371094 11.796875 1.496094 9.3125 1.695312 C 5.96875 1.964844 3.042969 4.285156 2.0625 7.492188 C 1.363281 9.78125 1.65625 12.171875 2.796875 14.148438 L 1.714844 17.734375 C 1.613281 18.078125 1.925781 18.402344 2.273438 18.308594 L 6.027344 17.304688 C 7.242188 17.964844 8.613281 18.316406 10.003906 18.316406 L 10.007812 18.316406 C 13.503906 18.316406 16.734375 16.179688 17.851562 12.867188 C 18.941406 9.636719 18.136719 6.347656 15.898438 4.105469 Z M 14.082031 12.960938 C 13.910156 13.449219 13.058594 13.914062 12.675781 13.949219 C 12.296875 13.984375 11.9375 14.121094 10.183594 13.429688 C 8.066406 12.597656 6.734375 10.429688 6.628906 10.289062 C 6.523438 10.152344 5.78125 9.164062 5.78125 8.140625 C 5.78125 7.117188 6.316406 6.613281 6.507812 6.40625 C 6.699219 6.199219 6.925781 6.144531 7.0625 6.144531 C 7.203125 6.144531 7.339844 6.144531 7.460938 6.152344 C 7.609375 6.15625 7.773438 6.164062 7.929688 6.511719 C 8.113281 6.921875 8.519531 7.949219 8.570312 8.054688 C 8.621094 8.160156 8.65625 8.28125 8.589844 8.417969 C 8.519531 8.558594 8.484375 8.644531 8.378906 8.765625 C 8.277344 8.886719 8.164062 9.035156 8.070312 9.128906 C 7.964844 9.234375 7.855469 9.347656 7.976562 9.554688 C 8.097656 9.761719 8.515625 10.441406 9.132812 10.992188 C 9.929688 11.703125 10.597656 11.921875 10.808594 12.027344 C 11.015625 12.128906 11.136719 12.113281 11.257812 11.972656 C 11.378906 11.835938 11.777344 11.367188 11.914062 11.160156 C 12.054688 10.949219 12.191406 10.984375 12.382812 11.054688 C 12.574219 11.125 13.597656 11.625 13.804688 11.730469 C 14.011719 11.835938 14.152344 11.886719 14.203125 11.972656 C 14.253906 12.058594 14.253906 12.476562 14.082031 12.960938 Z M 14.082031 12.960938 "/>
</g>
</svg>
